<svg xmlns="http://www.w3.org/2000/svg" xmlns:xlink="http://www.w3.org/1999/xlink" width="39.644" height="39.641" viewBox="0 0 39.644 39.641"><defs><style>.a{fill:url(#a);}</style><linearGradient id="a" x1="0.5" x2="0.5" y2="1" gradientUnits="objectBoundingBox"><stop offset="0.139" stop-color="#ffbf48"/><stop offset="0.497" stop-color="#fff47a"/><stop offset="1" stop-color="#ffbf48"/></linearGradient></defs><g transform="translate(0 -0.001)"><path class="a" d="M38.013,0c-7.739-.139-16.564,3.906-22.15,10.182A20.96,20.96,0,0,0,1.5,16.3a.826.826,0,0,0,.462,1.406l6.366.912-.786.88a.825.825,0,0,0,.033,1.135L18.19,31.251a.828.828,0,0,0,1.135.031l.88-.786.912,6.366a.822.822,0,0,0,.585.638.759.759,0,0,0,.236.036.933.933,0,0,0,.639-.266,20.916,20.916,0,0,0,6.064-14.311C34.923,17.361,39,8.539,38.821.81A.83.83,0,0,0,38.013,0ZM30.4,14.263a4.13,4.13,0,1,1,0-5.841A4.117,4.117,0,0,1,30.4,14.263Z" transform="translate(0.817 0)"/><path class="a" d="M4.5,17.494C2.732,19.261.306,27.246.035,28.149a.826.826,0,0,0,.791,1.064.846.846,0,0,0,.238-.035c.9-.271,8.888-2.7,10.656-4.465a5.105,5.105,0,0,0-7.22-7.22Z" transform="translate(0 10.429)"/></g></svg>