<svg xmlns="http://www.w3.org/2000/svg" xmlns:xlink="http://www.w3.org/1999/xlink" width="40.13" height="40.095" viewBox="0 0 40.13 40.095"><defs><style>.a{fill:url(#a);}</style><linearGradient id="a" x1="0.5" x2="0.5" y2="1" gradientUnits="objectBoundingBox"><stop offset="0.139" stop-color="#ffbf48"/><stop offset="0.497" stop-color="#fff47a"/><stop offset="1" stop-color="#ffbf48"/></linearGradient></defs><g transform="translate(0 -0.15)"><g transform="translate(22.763 16.827)"><path class="a" d="M198.011,142.65h-2.387l-1.124,6.741h2.387a4.252,4.252,0,0,0,4.073-3.371A2.856,2.856,0,0,0,198.011,142.65Z" transform="translate(-194.5 -142.65)"/></g><g transform="translate(0 0.15)"><g transform="translate(0)"><path class="a" d="M39.007,17.529,30.861,9.384,22.716,1.238a3.815,3.815,0,0,0-5.337,0L9.234,9.384,1.088,17.529a3.815,3.815,0,0,0,0,5.337l8.145,8.145,8.145,8.145a3.815,3.815,0,0,0,5.337,0l8.145-8.145,8.145-8.145A3.73,3.73,0,0,0,39.007,17.529ZM17.847,25.488a.548.548,0,0,1-.515.421H15.881a.382.382,0,0,1-.375-.421l.7-4.166H11.528l-.7,4.166a.548.548,0,0,1-.515.421H8.859a.382.382,0,0,1-.375-.421l1.779-10.533a.548.548,0,0,1,.515-.421H12.23a.382.382,0,0,1,.375.421l-.7,4.073h4.681l.7-4.073a.548.548,0,0,1,.515-.421h1.451a.382.382,0,0,1,.375.421ZM31.517,20.2a7.1,7.1,0,0,1-6.788,5.711h-4.26a.382.382,0,0,1-.375-.421l1.779-10.533a.548.548,0,0,1,.515-.421h4.26A4.705,4.705,0,0,1,31.517,20.2Z" transform="translate(0 -0.15)"/></g></g></g></svg>