<svg xmlns="http://www.w3.org/2000/svg" xmlns:xlink="http://www.w3.org/1999/xlink" width="39.533" height="38" viewBox="0 0 39.533 38"><defs><style>.a{fill:url(#a);}</style><linearGradient id="a" x1="0.5" x2="0.5" y2="1" gradientUnits="objectBoundingBox"><stop offset="0.139" stop-color="#ffbf48"/><stop offset="0.497" stop-color="#fff47a"/><stop offset="1" stop-color="#ffbf48"/></linearGradient></defs><g transform="translate(0 -0.911)"><g transform="translate(0 0.911)"><path class="a" d="M15.851,14.513l-2.4-2.273a3.524,3.524,0,0,0,.453-1.707,3.591,3.591,0,1,0-1.681,3.017l2.4,2.27A8.168,8.168,0,0,1,15.851,14.513Z" transform="translate(-1.075 -1.873)"/><path class="a" d="M29.369,13.266l3.2-5.377a3.527,3.527,0,1,0-1.55-.905l-3.185,5.362A7.98,7.98,0,0,1,29.369,13.266Z" transform="translate(-4.421 -0.911)"/><path class="a" d="M41.26,20.952a3.563,3.563,0,0,0-3.338,2.334l-4.439-.438c0,.034.005.066.005.1a8.175,8.175,0,0,1-.179,1.69l4.438.438a3.561,3.561,0,1,0,3.513-4.122Z" transform="translate(-5.292 -4.095)"/><path class="a" d="M27.5,36.8l-.993-4.337a8.127,8.127,0,0,1-1.751.4l.994,4.338A3.556,3.556,0,1,0,27.5,36.8Z" transform="translate(-3.786 -5.925)"/><path class="a" d="M12.076,25.37,6.55,27.221a3.56,3.56,0,1,0,.584,1.946c0-.082-.018-.158-.024-.239l5.544-1.856A8.144,8.144,0,0,1,12.076,25.37Z" transform="translate(0 -4.797)"/><circle class="a" cx="6.116" cy="6.116" r="6.116" transform="translate(13.928 12.735)"/></g></g></svg>