<svg xmlns="http://www.w3.org/2000/svg" xmlns:xlink="http://www.w3.org/1999/xlink" width="40.13" height="49.924" viewBox="0 0 40.13 49.924"><defs><style>.a{fill:url(#a);}</style><linearGradient id="a" x1="0.5" x2="0.5" y2="1" gradientUnits="objectBoundingBox"><stop offset="0.139" stop-color="#ffbf48"/><stop offset="0.497" stop-color="#fff47a"/><stop offset="1" stop-color="#ffbf48"/></linearGradient></defs><g transform="translate(-60.68 -13.021)"><path class="a" d="M245.719,18.583a.719.719,0,0,0,.719-.719V13.74a.719.719,0,1,0-1.438,0v4.124a.719.719,0,0,0,.719.719Z" transform="translate(-165.385)"/><path class="a" d="M404.807,96.887l-3.751,3.26a.719.719,0,1,0,.943,1.086l3.751-3.26a.719.719,0,1,0-.943-1.086Z" transform="translate(-305.188 -75.092)"/><path class="a" d="M61.9,90.158A.719.719,0,1,0,60.9,91.2l3.552,3.386a.719.719,0,0,0,.992-1.041Z" transform="translate(0 -69.035)"/><path class="a" d="M225.837,162.058c-.025.051-.049.1-.073.157a20.329,20.329,0,0,1,3.028,1.187,20.326,20.326,0,0,1,3.027-1.186c-.746-1.633-1.681-2.656-2.622-2.887a2.51,2.51,0,0,1-3.36,2.729Z" transform="translate(-148.125 -131.278)"/><circle class="a" cx="1.072" cy="1.072" r="1.072" transform="translate(77.518 27.356)"/><path class="a" d="M272.648,202.309q.393.269.771.55a17.944,17.944,0,0,0-.6-2.36,17.565,17.565,0,0,0-1.946.694C271.47,201.537,272.063,201.908,272.648,202.309Z" transform="translate(-188.601 -168.218)"/><path class="a" d="M215.6,309.307c-.262-.18-.519-.364-.771-.551a17.965,17.965,0,0,0,.6,2.361,17.581,17.581,0,0,0,1.946-.694C216.78,310.079,216.186,309.708,215.6,309.307Z" transform="translate(-138.314 -265.354)"/><path class="a" d="M217.363,201.189a17.565,17.565,0,0,0-1.948-.694,17.908,17.908,0,0,0-.6,2.362q.38-.281.773-.551C216.174,201.9,216.767,201.533,217.363,201.189Z" transform="translate(-138.302 -168.215)"/><path class="a" d="M225.772,334.442c.853,1.867,1.954,2.937,3.027,2.937s2.174-1.07,3.027-2.937a20.337,20.337,0,0,1-3.027-1.186A20.335,20.335,0,0,1,225.772,334.442Z" transform="translate(-148.132 -287.337)"/><path class="a" d="M165.28,202a22.779,22.779,0,0,1,1.953-1.916,21.164,21.164,0,0,1,.846-4.013c-2.021-.351-3.525-.049-4.132.836s-.341,2.439.754,4.23C164.876,201.428,165.07,201.716,165.28,202Z" transform="translate(-92.369 -164.12)"/><circle class="a" cx="1.072" cy="1.072" r="1.072" transform="translate(70.144 40.597)"/><rect class="a" width="12.328" height="3.801" transform="translate(74.581 59.144)"/><path class="a" d="M188.612,257.892q.416.477.885.946c-.011-.314-.018-.63-.018-.948s.006-.63.017-.942Q189.028,257.416,188.612,257.892Z" transform="translate(-114.79 -218.869)"/><path class="a" d="M165.993,284.384a2.509,2.509,0,0,1-2.348,3.281,1.968,1.968,0,0,0,.32,1.073c.607.885,2.112,1.188,4.134.836a21.083,21.083,0,0,1-.847-4.009Q166.588,284.986,165.993,284.384Z" transform="translate(-92.388 -243.486)"/><path class="a" d="M305.625,282.838a2.5,2.5,0,0,1,.225-1.038c-.47.492-.978.976-1.518,1.447a21.1,21.1,0,0,1-.847,4.009c2.022.352,3.527.05,4.134-.836a1.974,1.974,0,0,0,.32-1.081A2.513,2.513,0,0,1,305.625,282.838Z" transform="translate(-217.862 -241.167)"/><path class="a" d="M314.145,257.883q-.416-.476-.885-.945c.01.312.018.627.018.943s-.007.634-.018.948Q313.729,258.36,314.145,257.883Z" transform="translate(-226.633 -218.86)"/><path class="a" d="M303.485,196.074a21.089,21.089,0,0,1,.847,4.013A22.73,22.73,0,0,1,306.286,202c.209-.288.4-.576.579-.863,1.094-1.79,1.369-3.332.754-4.23S305.507,195.722,303.485,196.074Z" transform="translate(-217.862 -164.12)"/><path class="a" d="M270.874,310.423a17.585,17.585,0,0,0,1.946.694,17.947,17.947,0,0,0,.6-2.361c-.253.187-.509.371-.771.551C272.063,309.708,271.47,310.079,270.874,310.423Z" transform="translate(-188.601 -265.354)"/><circle class="a" cx="1.072" cy="1.072" r="1.072" transform="translate(89.201 40.597)"/><circle class="a" cx="1.072" cy="1.072" r="1.072" transform="translate(79.595 37.949)"/><path class="a" d="M218.155,216.176a25.017,25.017,0,0,0-2.567-1.545,25.019,25.019,0,0,0-2.567,1.545c-.653.448-1.278.922-1.867,1.412-.07.757-.106,1.538-.106,2.332s.037,1.576.107,2.336c.587.487,1.21.959,1.866,1.409a25.014,25.014,0,0,0,2.567,1.545,25.005,25.005,0,0,0,2.567-1.545c.656-.45,1.279-.922,1.866-1.409.07-.759.107-1.541.107-2.336s-.037-1.575-.107-2.333C219.432,217.1,218.808,216.623,218.155,216.176Zm-2.567,6.255a2.51,2.51,0,1,1,2.51-2.51A2.511,2.511,0,0,1,215.588,222.431Z" transform="translate(-134.921 -180.899)"/><path class="a" d="M124.642,115.452a15.282,15.282,0,0,0-10.307,4.242,13.59,13.59,0,0,0-.412,19.725,13.144,13.144,0,0,1,3.907,9.373H115.34a.719.719,0,1,0,0,1.438h19.112a.719.719,0,1,0,0-1.438h-2.688a12.737,12.737,0,0,1,3.973-9.309,14.028,14.028,0,0,0,4.1-9.8,13.8,13.8,0,0,0-4.195-9.872A15.215,15.215,0,0,0,124.642,115.452Zm9.061,15.72a2.51,2.51,0,0,1,1.961,4.586,3.48,3.48,0,0,1-.569,2.213,4.335,4.335,0,0,1-3.789,1.605,10.514,10.514,0,0,1-1.871-.181c-.057-.01-.115-.023-.172-.034-.023.054-.045.109-.069.161-1.116,2.491-2.67,3.864-4.375,3.864s-3.259-1.372-4.375-3.864c-.024-.053-.046-.108-.069-.161l-.172.034a10.517,10.517,0,0,1-1.871.181,4.335,4.335,0,0,1-3.789-1.605,3.562,3.562,0,0,1-.561-2.3,2.509,2.509,0,0,1,1.979-4.53c.051-.069.1-.139.156-.208a14.913,14.913,0,0,1-.861-1.252c-1.424-2.329-1.677-4.387-.713-5.793s2.974-1.912,5.66-1.424l.17.034q.157-.362.328-.7a2.509,2.509,0,0,1,3.743-3.3,3.126,3.126,0,0,1,.374-.024c1.705,0,3.259,1.372,4.375,3.864.024.053.046.108.069.161l.172-.034c2.686-.488,4.7.018,5.66,1.424s.711,3.464-.713,5.793a14.9,14.9,0,0,1-.86,1.251c.062.081.121.163.181.244Z" transform="translate(-44.152 -91.907)"/></g></svg>